<svg width="92" height="107" viewBox="0 0 92 107" fill="none" xmlns="http://www.w3.org/2000/svg">
<path d="M30 0.799805H62C74.813 0.799805 85.2002 11.187 85.2002 24V56C85.2002 68.813 74.813 79.2002 62 79.2002H30C17.187 79.2002 6.7998 68.813 6.7998 56V24C6.7998 11.187 17.187 0.799805 30 0.799805Z" stroke="#F1F1F1" stroke-width="1.6"/>
<path d="M62 50.0466L50.404 29.9532L44.192 33.5359L53.7187 50.0466H62ZM50.9507 50.0466L43.292 36.7866L37.08 40.3692L42.6693 50.0466H50.9507ZM36.2107 43.6306L39.912 50.0466H31.6307L30 47.2132L36.2107 43.6306Z" fill="black"/>
<path d="M27.916 104.012H23.842L23.142 106H21.476L24.962 96.256H26.81L30.296 106H28.616L27.916 104.012ZM27.468 102.71L25.886 98.188L24.29 102.71H27.468ZM31.2797 102.108C31.2797 101.333 31.4384 100.647 31.7557 100.05C32.0824 99.4527 32.5211 98.9907 33.0717 98.664C33.6317 98.328 34.2524 98.16 34.9337 98.16C35.4377 98.16 35.9324 98.272 36.4177 98.496C36.9124 98.7107 37.3044 99 37.5937 99.364V95.64H39.2037V106H37.5937V104.838C37.3324 105.211 36.9684 105.519 36.5017 105.762C36.0444 106.005 35.5171 106.126 34.9197 106.126C34.2477 106.126 33.6317 105.958 33.0717 105.622C32.5211 105.277 32.0824 104.801 31.7557 104.194C31.4384 103.578 31.2797 102.883 31.2797 102.108ZM37.5937 102.136C37.5937 101.604 37.4817 101.142 37.2577 100.75C37.0431 100.358 36.7584 100.059 36.4037 99.854C36.0491 99.6487 35.6664 99.546 35.2557 99.546C34.8451 99.546 34.4624 99.6487 34.1077 99.854C33.7531 100.05 33.4637 100.344 33.2397 100.736C33.0251 101.119 32.9177 101.576 32.9177 102.108C32.9177 102.64 33.0251 103.107 33.2397 103.508C33.4637 103.909 33.7531 104.217 34.1077 104.432C34.4717 104.637 34.8544 104.74 35.2557 104.74C35.6664 104.74 36.0491 104.637 36.4037 104.432C36.7584 104.227 37.0431 103.928 37.2577 103.536C37.4817 103.135 37.5937 102.668 37.5937 102.136ZM42.112 97.264C41.8227 97.264 41.58 97.166 41.384 96.97C41.188 96.774 41.09 96.5313 41.09 96.242C41.09 95.9527 41.188 95.71 41.384 95.514C41.58 95.318 41.8227 95.22 42.112 95.22C42.392 95.22 42.63 95.318 42.826 95.514C43.022 95.71 43.12 95.9527 43.12 96.242C43.12 96.5313 43.022 96.774 42.826 96.97C42.63 97.166 42.392 97.264 42.112 97.264ZM42.896 98.286V106H41.3V98.286H42.896ZM44.4594 102.108C44.4594 101.333 44.6181 100.647 44.9354 100.05C45.2621 99.4527 45.7007 98.9907 46.2514 98.664C46.8114 98.328 47.4321 98.16 48.1134 98.16C48.6174 98.16 49.1121 98.272 49.5974 98.496C50.0921 98.7107 50.4841 99 50.7734 99.364V95.64H52.3834V106H50.7734V104.838C50.5121 105.211 50.1481 105.519 49.6814 105.762C49.2241 106.005 48.6967 106.126 48.0994 106.126C47.4274 106.126 46.8114 105.958 46.2514 105.622C45.7007 105.277 45.2621 104.801 44.9354 104.194C44.6181 103.578 44.4594 102.883 44.4594 102.108ZM50.7734 102.136C50.7734 101.604 50.6614 101.142 50.4374 100.75C50.2227 100.358 49.9381 100.059 49.5834 99.854C49.2287 99.6487 48.8461 99.546 48.4354 99.546C48.0247 99.546 47.6421 99.6487 47.2874 99.854C46.9327 100.05 46.6434 100.344 46.4194 100.736C46.2047 101.119 46.0974 101.576 46.0974 102.108C46.0974 102.64 46.2047 103.107 46.4194 103.508C46.6434 103.909 46.9327 104.217 47.2874 104.432C47.6514 104.637 48.0341 104.74 48.4354 104.74C48.8461 104.74 49.2287 104.637 49.5834 104.432C49.9381 104.227 50.2227 103.928 50.4374 103.536C50.6614 103.135 50.7734 102.668 50.7734 102.136ZM53.9477 102.108C53.9477 101.333 54.1064 100.647 54.4237 100.05C54.7504 99.4527 55.189 98.9907 55.7397 98.664C56.2997 98.328 56.9157 98.16 57.5877 98.16C58.1944 98.16 58.7217 98.2813 59.1697 98.524C59.627 98.7573 59.991 99.0513 60.2617 99.406V98.286H61.8717V106H60.2617V104.852C59.991 105.216 59.6224 105.519 59.1557 105.762C58.689 106.005 58.157 106.126 57.5597 106.126C56.897 106.126 56.2904 105.958 55.7397 105.622C55.189 105.277 54.7504 104.801 54.4237 104.194C54.1064 103.578 53.9477 102.883 53.9477 102.108ZM60.2617 102.136C60.2617 101.604 60.1497 101.142 59.9257 100.75C59.711 100.358 59.4264 100.059 59.0717 99.854C58.717 99.6487 58.3344 99.546 57.9237 99.546C57.513 99.546 57.1304 99.6487 56.7757 99.854C56.421 100.05 56.1317 100.344 55.9077 100.736C55.693 101.119 55.5857 101.576 55.5857 102.108C55.5857 102.64 55.693 103.107 55.9077 103.508C56.1317 103.909 56.421 104.217 56.7757 104.432C57.1397 104.637 57.5224 104.74 57.9237 104.74C58.3344 104.74 58.717 104.637 59.0717 104.432C59.4264 104.227 59.711 103.928 59.9257 103.536C60.1497 103.135 60.2617 102.668 60.2617 102.136ZM66.768 106.126C66.1613 106.126 65.6153 106.019 65.13 105.804C64.654 105.58 64.276 105.281 63.996 104.908C63.716 104.525 63.5666 104.101 63.548 103.634H65.2C65.228 103.961 65.382 104.236 65.662 104.46C65.9513 104.675 66.3106 104.782 66.74 104.782C67.188 104.782 67.5333 104.698 67.776 104.53C68.028 104.353 68.154 104.129 68.154 103.858C68.154 103.569 68.014 103.354 67.734 103.214C67.4633 103.074 67.0293 102.92 66.432 102.752C65.8533 102.593 65.382 102.439 65.018 102.29C64.654 102.141 64.3366 101.912 64.066 101.604C63.8046 101.296 63.674 100.89 63.674 100.386C63.674 99.9753 63.7953 99.602 64.038 99.266C64.2806 98.9207 64.626 98.65 65.074 98.454C65.5313 98.258 66.054 98.16 66.642 98.16C67.5193 98.16 68.224 98.384 68.756 98.832C69.2973 99.2707 69.5866 99.8727 69.624 100.638H68.028C68 100.293 67.86 100.017 67.608 99.812C67.356 99.6067 67.0153 99.504 66.586 99.504C66.166 99.504 65.844 99.5833 65.62 99.742C65.396 99.9007 65.284 100.111 65.284 100.372C65.284 100.577 65.3586 100.75 65.508 100.89C65.6573 101.03 65.8393 101.142 66.054 101.226C66.2686 101.301 66.586 101.399 67.006 101.52C67.566 101.669 68.0233 101.823 68.378 101.982C68.742 102.131 69.0546 102.355 69.316 102.654C69.5773 102.953 69.7126 103.349 69.722 103.844C69.722 104.283 69.6006 104.675 69.358 105.02C69.1153 105.365 68.77 105.636 68.322 105.832C67.8833 106.028 67.3653 106.126 66.768 106.126Z" fill="black"/>
</svg>
