<svg width="92" height="107" viewBox="0 0 92 107" fill="none" xmlns="http://www.w3.org/2000/svg">
<path d="M30 0.799805H62C74.813 0.799805 85.2002 11.187 85.2002 24V56C85.2002 68.813 74.813 79.2002 62 79.2002H30C17.187 79.2002 6.7998 68.813 6.7998 56V24C6.7998 11.187 17.187 0.799805 30 0.799805Z" stroke="#F1F1F1" stroke-width="1.6"/>
<path d="M39.0572 47.6435L39.0339 41.8844L44.5478 39.8389L38.9949 38.0203L38.8786 32.3461L35.5101 36.9242L30 35.2255L33.1985 40.0313L30.0765 44.846L35.5148 43.0436L39.0572 47.6435Z" fill="black"/>
<path d="M39.7458 53.6972H49.6221L62 40.0084L49.5624 26.3029H39.7814L51.414 39.9882L39.7458 53.6972Z" fill="black"/>
<path d="M12.518 101.114C12.518 100.162 12.7373 99.308 13.176 98.552C13.624 97.796 14.226 97.208 14.982 96.788C15.7473 96.3587 16.5827 96.144 17.488 96.144C18.524 96.144 19.4433 96.4007 20.246 96.914C21.058 97.418 21.646 98.1367 22.01 99.07H20.092C19.84 98.5567 19.49 98.174 19.042 97.922C18.594 97.67 18.076 97.544 17.488 97.544C16.844 97.544 16.27 97.6887 15.766 97.978C15.262 98.2673 14.8653 98.6827 14.576 99.224C14.296 99.7653 14.156 100.395 14.156 101.114C14.156 101.833 14.296 102.463 14.576 103.004C14.8653 103.545 15.262 103.965 15.766 104.264C16.27 104.553 16.844 104.698 17.488 104.698C18.076 104.698 18.594 104.572 19.042 104.32C19.49 104.068 19.84 103.685 20.092 103.172H22.01C21.646 104.105 21.058 104.824 20.246 105.328C19.4433 105.832 18.524 106.084 17.488 106.084C16.5733 106.084 15.738 105.874 14.982 105.454C14.226 105.025 13.624 104.432 13.176 103.676C12.7373 102.92 12.518 102.066 12.518 101.114ZM27.2241 106.126C26.4961 106.126 25.8381 105.963 25.2501 105.636C24.6621 105.3 24.2001 104.833 23.8641 104.236C23.5281 103.629 23.3601 102.929 23.3601 102.136C23.3601 101.352 23.5328 100.657 23.8781 100.05C24.2235 99.4433 24.6948 98.9767 25.2921 98.65C25.8895 98.3233 26.5568 98.16 27.2941 98.16C28.0315 98.16 28.6988 98.3233 29.2961 98.65C29.8935 98.9767 30.3648 99.4433 30.7101 100.05C31.0555 100.657 31.2281 101.352 31.2281 102.136C31.2281 102.92 31.0508 103.615 30.6961 104.222C30.3415 104.829 29.8561 105.3 29.2401 105.636C28.6335 105.963 27.9615 106.126 27.2241 106.126ZM27.2241 104.74C27.6348 104.74 28.0175 104.642 28.3721 104.446C28.7361 104.25 29.0301 103.956 29.2541 103.564C29.4781 103.172 29.5901 102.696 29.5901 102.136C29.5901 101.576 29.4828 101.105 29.2681 100.722C29.0535 100.33 28.7688 100.036 28.4141 99.84C28.0595 99.644 27.6768 99.546 27.2661 99.546C26.8555 99.546 26.4728 99.644 26.1181 99.84C25.7728 100.036 25.4975 100.33 25.2921 100.722C25.0868 101.105 24.9841 101.576 24.9841 102.136C24.9841 102.967 25.1941 103.611 25.6141 104.068C26.0435 104.516 26.5801 104.74 27.2241 104.74ZM36.6979 98.16C37.3045 98.16 37.8459 98.286 38.3219 98.538C38.8072 98.79 39.1852 99.1633 39.4559 99.658C39.7265 100.153 39.8619 100.75 39.8619 101.45V106H38.2799V101.688C38.2799 100.997 38.1072 100.47 37.7619 100.106C37.4165 99.7327 36.9452 99.546 36.3479 99.546C35.7505 99.546 35.2745 99.7327 34.9199 100.106C34.5745 100.47 34.4019 100.997 34.4019 101.688V106H32.8059V98.286H34.4019V99.168C34.6632 98.8507 34.9945 98.6033 35.3959 98.426C35.8065 98.2487 36.2405 98.16 36.6979 98.16ZM44.8797 104.572L47.0637 98.286H48.7577L45.8177 106H43.9137L40.9877 98.286H42.6957L44.8797 104.572ZM57.0341 101.954C57.0341 102.243 57.0154 102.505 56.9781 102.738H51.0841C51.1307 103.354 51.3594 103.849 51.7701 104.222C52.1807 104.595 52.6847 104.782 53.2821 104.782C54.1407 104.782 54.7474 104.423 55.1021 103.704H56.8241C56.5907 104.413 56.1661 104.997 55.5501 105.454C54.9434 105.902 54.1874 106.126 53.2821 106.126C52.5447 106.126 51.8821 105.963 51.2941 105.636C50.7154 105.3 50.2581 104.833 49.9221 104.236C49.5954 103.629 49.4321 102.929 49.4321 102.136C49.4321 101.343 49.5907 100.647 49.9081 100.05C50.2347 99.4433 50.6874 98.9767 51.2661 98.65C51.8541 98.3233 52.5261 98.16 53.2821 98.16C54.0101 98.16 54.6587 98.3187 55.2281 98.636C55.7974 98.9533 56.2407 99.4013 56.5581 99.98C56.8754 100.549 57.0341 101.207 57.0341 101.954ZM55.3681 101.45C55.3587 100.862 55.1487 100.391 54.7381 100.036C54.3274 99.6813 53.8187 99.504 53.2121 99.504C52.6614 99.504 52.1901 99.6813 51.7981 100.036C51.4061 100.381 51.1727 100.853 51.0981 101.45H55.3681ZM60.2007 99.406C60.434 99.014 60.742 98.7107 61.1247 98.496C61.5167 98.272 61.9787 98.16 62.5107 98.16V99.812H62.1047C61.4794 99.812 61.0034 99.9707 60.6767 100.288C60.3594 100.605 60.2007 101.156 60.2007 101.94V106H58.6047V98.286H60.2007V99.406ZM66.7777 106.126C66.1711 106.126 65.6251 106.019 65.1397 105.804C64.6637 105.58 64.2857 105.281 64.0057 104.908C63.7257 104.525 63.5764 104.101 63.5577 103.634H65.2097C65.2377 103.961 65.3917 104.236 65.6717 104.46C65.9611 104.675 66.3204 104.782 66.7497 104.782C67.1977 104.782 67.5431 104.698 67.7857 104.53C68.0377 104.353 68.1637 104.129 68.1637 103.858C68.1637 103.569 68.0237 103.354 67.7437 103.214C67.4731 103.074 67.0391 102.92 66.4417 102.752C65.8631 102.593 65.3917 102.439 65.0277 102.29C64.6637 102.141 64.3464 101.912 64.0757 101.604C63.8144 101.296 63.6837 100.89 63.6837 100.386C63.6837 99.9753 63.8051 99.602 64.0477 99.266C64.2904 98.9207 64.6357 98.65 65.0837 98.454C65.5411 98.258 66.0637 98.16 66.6517 98.16C67.5291 98.16 68.2337 98.384 68.7657 98.832C69.3071 99.2707 69.5964 99.8727 69.6337 100.638H68.0377C68.0097 100.293 67.8697 100.017 67.6177 99.812C67.3657 99.6067 67.0251 99.504 66.5957 99.504C66.1757 99.504 65.8537 99.5833 65.6297 99.742C65.4057 99.9007 65.2937 100.111 65.2937 100.372C65.2937 100.577 65.3684 100.75 65.5177 100.89C65.6671 101.03 65.8491 101.142 66.0637 101.226C66.2784 101.301 66.5957 101.399 67.0157 101.52C67.5757 101.669 68.0331 101.823 68.3877 101.982C68.7517 102.131 69.0644 102.355 69.3257 102.654C69.5871 102.953 69.7224 103.349 69.7317 103.844C69.7317 104.283 69.6104 104.675 69.3677 105.02C69.1251 105.365 68.7797 105.636 68.3317 105.832C67.8931 106.028 67.3751 106.126 66.7777 106.126ZM78.5263 101.954C78.5263 102.243 78.5076 102.505 78.4703 102.738H72.5763C72.6229 103.354 72.8516 103.849 73.2623 104.222C73.6729 104.595 74.1769 104.782 74.7743 104.782C75.6329 104.782 76.2396 104.423 76.5943 103.704H78.3162C78.0829 104.413 77.6583 104.997 77.0423 105.454C76.4356 105.902 75.6796 106.126 74.7743 106.126C74.0369 106.126 73.3743 105.963 72.7863 105.636C72.2076 105.3 71.7503 104.833 71.4143 104.236C71.0876 103.629 70.9243 102.929 70.9243 102.136C70.9243 101.343 71.0829 100.647 71.4003 100.05C71.7269 99.4433 72.1796 98.9767 72.7583 98.65C73.3463 98.3233 74.0183 98.16 74.7743 98.16C75.5023 98.16 76.1509 98.3187 76.7203 98.636C77.2896 98.9533 77.7329 99.4013 78.0503 99.98C78.3676 100.549 78.5263 101.207 78.5263 101.954ZM76.8603 101.45C76.8509 100.862 76.6409 100.391 76.2303 100.036C75.8196 99.6813 75.3109 99.504 74.7043 99.504C74.1536 99.504 73.6823 99.6813 73.2903 100.036C72.8983 100.381 72.6649 100.853 72.5903 101.45H76.8603Z" fill="black"/>
</svg>
