<svg width="92" height="107" viewBox="0 0 92 107" fill="none" xmlns="http://www.w3.org/2000/svg">
<rect x="6.8" y="0.8" width="78.4" height="78.4" rx="23.2" stroke="#F1F1F1" stroke-width="1.6"/>
<g clip-path="url(#clip0_356_5306)">
<path d="M62.0003 34.4L38.5896 44.368C36.6483 45.1902 35.0181 45.6014 33.6989 45.6014C32.2056 45.6014 31.1225 45.0782 30.4496 44.032C30.0274 43.36 29.9029 42.5076 30.0763 41.4747C30.2505 40.4418 30.7109 39.3405 31.4576 38.1707C32.0798 37.224 33.1007 35.9796 34.5203 34.4374C34.0382 35.1953 33.6849 36.0279 33.4749 36.9014C33.1016 38.4942 33.4376 39.664 34.4829 40.4107C34.9807 40.7591 35.6652 40.9334 36.5363 40.9334C37.2323 40.9334 38.0163 40.8214 38.8883 40.5974L62.0003 34.4Z" fill="black"/>
</g>
<path d="M39.544 106H37.948L33.146 98.734V106H31.55V96.256H33.146L37.948 103.508V96.256H39.544V106ZM42.4518 97.264C42.1625 97.264 41.9198 97.166 41.7238 96.97C41.5278 96.774 41.4298 96.5313 41.4298 96.242C41.4298 95.9527 41.5278 95.71 41.7238 95.514C41.9198 95.318 42.1625 95.22 42.4518 95.22C42.7318 95.22 42.9698 95.318 43.1658 95.514C43.3618 95.71 43.4598 95.9527 43.4598 96.242C43.4598 96.5313 43.3618 96.774 43.1658 96.97C42.9698 97.166 42.7318 97.264 42.4518 97.264ZM43.2358 98.286V106H41.6398V98.286H43.2358ZM48.3833 102.15L51.9393 106H49.7833L46.9273 102.682V106H45.3313V95.64H46.9273V101.66L49.7273 98.286H51.9393L48.3833 102.15ZM60.1532 101.954C60.1532 102.243 60.1345 102.505 60.0972 102.738H54.2032C54.2499 103.354 54.4785 103.849 54.8892 104.222C55.2999 104.595 55.8039 104.782 56.4012 104.782C57.2599 104.782 57.8665 104.423 58.2212 103.704H59.9432C59.7099 104.413 59.2852 104.997 58.6692 105.454C58.0625 105.902 57.3065 106.126 56.4012 106.126C55.6639 106.126 55.0012 105.963 54.4132 105.636C53.8345 105.3 53.3772 104.833 53.0412 104.236C52.7145 103.629 52.5512 102.929 52.5512 102.136C52.5512 101.343 52.7099 100.647 53.0272 100.05C53.3539 99.4433 53.8065 98.9767 54.3852 98.65C54.9732 98.3233 55.6452 98.16 56.4012 98.16C57.1292 98.16 57.7779 98.3187 58.3472 98.636C58.9165 98.9533 59.3599 99.4013 59.6772 99.98C59.9945 100.549 60.1532 101.207 60.1532 101.954ZM58.4872 101.45C58.4779 100.862 58.2679 100.391 57.8572 100.036C57.4465 99.6813 56.9379 99.504 56.3312 99.504C55.7805 99.504 55.3092 99.6813 54.9172 100.036C54.5252 100.381 54.2919 100.853 54.2172 101.45H58.4872Z" fill="black"/>
<defs>
<clipPath id="clip0_356_5306">
<rect width="32" height="32" fill="white" transform="translate(30 24)"/>
</clipPath>
</defs>
</svg>
