<svg width="92" height="107" viewBox="0 0 92 107" fill="none" xmlns="http://www.w3.org/2000/svg">
<path d="M30 0.799805H62C74.813 0.799805 85.2002 11.187 85.2002 24V56C85.2002 68.813 74.813 79.2002 62 79.2002H30C17.187 79.2002 6.7998 68.813 6.7998 56V24C6.7998 11.187 17.187 0.799805 30 0.799805Z" stroke="#F1F1F1" stroke-width="1.6"/>
<path d="M61.7935 28.0106C61.2375 27.2999 60.2655 27.8693 59.8375 28.1173C56.7922 29.9119 56.3429 33.0719 55.2815 34.8866C54.4469 36.3399 53.0789 37.4066 51.8415 37.4893C50.9269 37.5546 49.9349 37.3773 48.9509 36.9493C46.5415 35.9079 45.2442 34.5599 44.9282 34.3226C44.2789 33.8293 39.2882 28.9693 35.2215 28.7706C35.2215 28.7706 34.7255 27.7706 34.6015 27.7533C34.3055 27.7199 34.0015 28.3546 33.7802 28.4213C33.5802 28.4919 33.2295 27.7386 33.0269 27.7719C32.8229 27.7986 32.6242 28.5533 32.2269 28.9413C31.9335 29.2253 31.5789 29.2079 31.3775 29.5586C31.3082 29.6866 31.3322 29.9119 31.2535 30.1186C31.0842 30.5453 30.5189 30.5906 30.5135 31.0479C30.5135 31.5559 30.9895 31.6533 31.4055 32.0079C31.7362 32.2906 31.7589 32.4906 32.1442 32.6226C32.4882 32.7399 32.9869 32.3733 33.4295 32.5053C33.7989 32.6133 34.1535 32.6919 34.2322 33.0693C34.3042 33.4106 34.2322 33.9466 33.7789 33.8866C33.6295 33.8666 32.9815 33.6546 32.1815 33.7399C31.2149 33.8426 30.1109 34.1519 30.0029 35.2199C29.9482 35.8159 30.6882 36.5133 31.4095 36.3746C31.9042 36.2799 31.6709 35.6999 31.9415 35.4199C32.2975 35.0599 34.3042 36.6786 36.1709 36.6786C36.9615 36.6786 37.5455 36.4786 38.1269 35.8719C38.1802 35.8333 38.2509 35.7359 38.3335 35.7253C38.4265 35.7485 38.5146 35.7882 38.5935 35.8426C40.1015 37.0386 41.2389 39.4426 46.7669 39.4706C47.5429 39.4799 48.4335 39.8426 49.1615 40.5066C49.8015 41.0839 50.1802 42.0066 50.5442 42.9399C51.1015 44.3439 52.0922 45.6986 53.6002 47.2106C53.6802 47.3013 54.9202 48.2506 55.0135 48.3213C55.0295 48.3346 55.1255 48.5439 55.0842 48.6613C55.0575 49.5813 54.9202 52.2213 56.9042 52.3319C57.3922 52.3586 57.2709 52.0239 57.2709 51.7853C57.2642 51.3306 57.1842 50.8719 57.4215 50.3986C57.7589 49.7613 56.7202 49.4533 56.7429 48.0573C56.7682 47.0119 55.8829 47.1893 55.4309 46.3906C55.1775 45.9333 54.9402 45.6813 54.9642 45.1293C55.0615 41.9559 54.2749 39.8653 53.8909 39.3599C53.5882 38.9679 53.3269 38.8226 53.6149 38.6399C55.2682 37.5533 55.6482 36.5413 55.6482 36.5413C56.5282 34.4866 57.3229 32.6146 58.4149 31.7813C58.6362 31.6213 59.2002 31.1946 59.5509 31.0346C60.5682 30.5519 61.1149 30.2639 61.4015 29.9839C61.8762 29.5346 62.2482 28.5799 61.7935 28.0106Z" fill="black"/>
<path d="M32.854 99.168C32.854 99.6627 32.7373 100.129 32.504 100.568C32.2707 101.007 31.8973 101.366 31.384 101.646C30.8707 101.917 30.2127 102.052 29.41 102.052H27.646V106H26.05V96.27H29.41C30.1567 96.27 30.7867 96.4007 31.3 96.662C31.8227 96.914 32.21 97.2593 32.462 97.698C32.7233 98.1367 32.854 98.6267 32.854 99.168ZM29.41 100.75C30.0167 100.75 30.4693 100.615 30.768 100.344C31.0667 100.064 31.216 99.672 31.216 99.168C31.216 98.104 30.614 97.572 29.41 97.572H27.646V100.75H29.41ZM41.3622 98.286V106H39.7662V105.09C39.5142 105.407 39.1828 105.659 38.7722 105.846C38.3708 106.023 37.9415 106.112 37.4842 106.112C36.8775 106.112 36.3315 105.986 35.8462 105.734C35.3702 105.482 34.9922 105.109 34.7122 104.614C34.4415 104.119 34.3062 103.522 34.3062 102.822V98.286H35.8882V102.584C35.8882 103.275 36.0608 103.807 36.4062 104.18C36.7515 104.544 37.2228 104.726 37.8202 104.726C38.4175 104.726 38.8888 104.544 39.2342 104.18C39.5888 103.807 39.7662 103.275 39.7662 102.584V98.286H41.3622ZM52.806 98.16C53.4126 98.16 53.954 98.286 54.43 98.538C54.9153 98.79 55.2933 99.1633 55.564 99.658C55.844 100.153 55.984 100.75 55.984 101.45V106H54.402V101.688C54.402 100.997 54.2293 100.47 53.884 100.106C53.5386 99.7327 53.0673 99.546 52.47 99.546C51.8726 99.546 51.3966 99.7327 51.042 100.106C50.6966 100.47 50.524 100.997 50.524 101.688V106H48.942V101.688C48.942 100.997 48.7693 100.47 48.424 100.106C48.0786 99.7327 47.6073 99.546 47.01 99.546C46.4126 99.546 45.9366 99.7327 45.582 100.106C45.2366 100.47 45.064 100.997 45.064 101.688V106H43.468V98.286H45.064V99.168C45.3253 98.8507 45.6566 98.6033 46.058 98.426C46.4593 98.2487 46.8886 98.16 47.346 98.16C47.962 98.16 48.5126 98.2907 48.998 98.552C49.4833 98.8133 49.8566 99.1913 50.118 99.686C50.3513 99.2193 50.7153 98.8507 51.21 98.58C51.7046 98.3 52.2366 98.16 52.806 98.16ZM57.4828 102.108C57.4828 101.333 57.6415 100.647 57.9588 100.05C58.2855 99.4527 58.7242 98.9907 59.2748 98.664C59.8348 98.328 60.4508 98.16 61.1228 98.16C61.7295 98.16 62.2568 98.2813 62.7048 98.524C63.1622 98.7573 63.5262 99.0513 63.7968 99.406V98.286H65.4068V106H63.7968V104.852C63.5262 105.216 63.1575 105.519 62.6908 105.762C62.2242 106.005 61.6922 106.126 61.0948 106.126C60.4322 106.126 59.8255 105.958 59.2748 105.622C58.7242 105.277 58.2855 104.801 57.9588 104.194C57.6415 103.578 57.4828 102.883 57.4828 102.108ZM63.7968 102.136C63.7968 101.604 63.6848 101.142 63.4608 100.75C63.2462 100.358 62.9615 100.059 62.6068 99.854C62.2522 99.6487 61.8695 99.546 61.4588 99.546C61.0482 99.546 60.6655 99.6487 60.3108 99.854C59.9562 100.05 59.6668 100.344 59.4428 100.736C59.2282 101.119 59.1208 101.576 59.1208 102.108C59.1208 102.64 59.2282 103.107 59.4428 103.508C59.6668 103.909 59.9562 104.217 60.3108 104.432C60.6748 104.637 61.0575 104.74 61.4588 104.74C61.8695 104.74 62.2522 104.637 62.6068 104.432C62.9615 104.227 63.2462 103.928 63.4608 103.536C63.6848 103.135 63.7968 102.668 63.7968 102.136Z" fill="black"/>
</svg>
