<svg width="92" height="107" viewBox="0 0 92 107" fill="none" xmlns="http://www.w3.org/2000/svg">
<path d="M30 0.799805H62C74.813 0.799805 85.2002 11.187 85.2002 24V56C85.2002 68.813 74.813 79.2002 62 79.2002H30C17.187 79.2002 6.7998 68.813 6.7998 56V24C6.7998 11.187 17.187 0.799805 30 0.799805Z" stroke="#F1F1F1" stroke-width="1.6"/>
<g clip-path="url(#clip0_356_5336)">
<path d="M60.3587 46.3318L55.6176 33.2786L55.6144 33.27H55.5208L54.5445 35.9524L52.7671 40.8357L52.763 40.8318C52.147 40.2883 51.2779 39.9485 50.1834 39.822L49.8495 39.7875L50.1807 39.745C51.9857 39.4207 53.199 38.2807 53.199 36.9073C53.199 35.0239 51.4276 33.7093 48.8902 33.7093H43.6106V33.8047H45.1447V43.5365L41.4189 33.2786L41.4157 33.27H41.3221L40.3458 35.9524L36.5802 46.2982L36.557 46.3009C36.4926 46.3088 36.429 46.3151 36.366 46.3199C36.2713 46.3273 36.1771 46.3318 36.0827 46.3318H32.2778L39.5103 33.8047L39.564 33.7105H30.7185V37.5857H30.8123C30.829 35.6982 31.9283 33.8047 34.357 33.8047H37.2871L30 46.4256H39.8171V42.7129H39.7232C39.7105 44.3581 38.7778 45.9207 36.7498 46.2735L36.6853 46.2845L38.2298 42.0392H42.5565L44.1156 46.3318H42.5776V46.4256H48.6139V46.3318H47.0694V39.8567H48.8515C50.6651 39.8567 51.7053 40.667 51.7053 42.079V43.2276C51.7053 43.3541 51.7139 43.5392 51.7234 43.6939V43.6996L50.7655 46.3312H49.5142V46.425H52.1045V46.3312H50.8665L51.7389 43.9348C51.7406 43.958 51.7415 43.9719 51.7415 43.9719L51.7656 44.1879L51.7888 44.3307C51.9343 45.2144 52.2723 45.8639 52.793 46.2614L52.8678 46.3157C53.2635 46.5908 53.755 46.7301 54.3298 46.7301C55.091 46.7301 55.5986 46.5403 56.0177 46.0935L55.9628 46.0419C55.5767 46.3983 55.2526 46.5426 54.8466 46.5426C54.1548 46.5426 53.7928 45.7036 53.7928 44.8761V43.2668C53.7964 42.8675 53.7339 42.4703 53.6077 42.0915L53.5905 42.0416V42.0398H56.7552L58.3143 46.3323H56.7763V46.4262H62V46.3323L60.3587 46.3318ZM38.2643 41.9454L40.3957 36.0896L42.5223 41.9454H38.2643ZM47.0703 39.7626V33.8047H48.4307C50.2478 33.8047 51.2072 34.8849 51.2072 36.9275C51.2072 39.0999 50.6565 39.7626 48.8515 39.7626H47.0703ZM53.5537 41.9454L53.5444 41.9222C53.4038 41.5797 53.1991 41.2672 52.9412 41.0014L52.8521 40.9123L52.8426 40.9034L54.5932 36.0896L56.7199 41.9454H53.5537Z" fill="black"/>
</g>
<path d="M32.09 104.614H36.612V106H30.2V104.754L34.708 97.656H30.2V96.27H36.612V97.516L32.09 104.614ZM37.8246 102.108C37.8246 101.333 37.9833 100.647 38.3006 100.05C38.6273 99.4527 39.066 98.9907 39.6166 98.664C40.1766 98.328 40.7926 98.16 41.4646 98.16C42.0713 98.16 42.5986 98.2813 43.0466 98.524C43.504 98.7573 43.868 99.0513 44.1386 99.406V98.286H45.7486V106H44.1386V104.852C43.868 105.216 43.4993 105.519 43.0326 105.762C42.566 106.005 42.034 106.126 41.4366 106.126C40.774 106.126 40.1673 105.958 39.6166 105.622C39.066 105.277 38.6273 104.801 38.3006 104.194C37.9833 103.578 37.8246 102.883 37.8246 102.108ZM44.1386 102.136C44.1386 101.604 44.0266 101.142 43.8026 100.75C43.588 100.358 43.3033 100.059 42.9486 99.854C42.594 99.6487 42.2113 99.546 41.8006 99.546C41.39 99.546 41.0073 99.6487 40.6526 99.854C40.298 100.05 40.0086 100.344 39.7846 100.736C39.57 101.119 39.4626 101.576 39.4626 102.108C39.4626 102.64 39.57 103.107 39.7846 103.508C40.0086 103.909 40.298 104.217 40.6526 104.432C41.0166 104.637 41.3993 104.74 41.8006 104.74C42.2113 104.74 42.594 104.637 42.9486 104.432C43.3033 104.227 43.588 103.928 43.8026 103.536C44.0266 103.135 44.1386 102.668 44.1386 102.136ZM49.4409 99.406C49.6743 99.014 49.9823 98.7107 50.3649 98.496C50.7569 98.272 51.2189 98.16 51.7509 98.16V99.812H51.3449C50.7196 99.812 50.2436 99.9707 49.9169 100.288C49.5996 100.605 49.4409 101.156 49.4409 101.94V106H47.8449V98.286H49.4409V99.406ZM52.686 102.108C52.686 101.333 52.8446 100.647 53.162 100.05C53.4886 99.4527 53.9273 98.9907 54.478 98.664C55.038 98.328 55.654 98.16 56.326 98.16C56.9326 98.16 57.46 98.2813 57.908 98.524C58.3653 98.7573 58.7293 99.0513 59 99.406V98.286H60.61V106H59V104.852C58.7293 105.216 58.3606 105.519 57.894 105.762C57.4273 106.005 56.8953 106.126 56.298 106.126C55.6353 106.126 55.0286 105.958 54.478 105.622C53.9273 105.277 53.4886 104.801 53.162 104.194C52.8446 103.578 52.686 102.883 52.686 102.108ZM59 102.136C59 101.604 58.888 101.142 58.664 100.75C58.4493 100.358 58.1646 100.059 57.81 99.854C57.4553 99.6487 57.0726 99.546 56.662 99.546C56.2513 99.546 55.8686 99.6487 55.514 99.854C55.1593 100.05 54.87 100.344 54.646 100.736C54.4313 101.119 54.324 101.576 54.324 102.108C54.324 102.64 54.4313 103.107 54.646 103.508C54.87 103.909 55.1593 104.217 55.514 104.432C55.878 104.637 56.2606 104.74 56.662 104.74C57.0726 104.74 57.4553 104.637 57.81 104.432C58.1646 104.227 58.4493 103.928 58.664 103.536C58.888 103.135 59 102.668 59 102.136Z" fill="black"/>
<defs>
<clipPath id="clip0_356_5336">
<rect width="32" height="13.46" fill="white" transform="translate(30 33.27)"/>
</clipPath>
</defs>
</svg>
